<?xml version="1.0" encoding="UTF-8"?>
<svg width="240" height="240" viewBox="0 0 200 200" data-om-id="jsx:/https:/9d8c1bab-ac99-4ade-b50f-cd13fdf0fdd3.claudeusercontent.com/v1/design/projects/9d8c1bab-ac99-4ade-b50f-cd13fdf0fdd3/serve/logos.jsx:2871:75:5" style="background: transparent;" xmlns="http://www.w3.org/2000/svg"><g transform="translate(7,7)" data-om-id="jsx:/https:/9d8c1bab-ac99-4ade-b50f-cd13fdf0fdd3.claudeusercontent.com/v1/design/projects/9d8c1bab-ac99-4ade-b50f-cd13fdf0fdd3/serve/logos.jsx:2623:67:5"><path d="M 100 28   C 138 28, 162 56, 162 88   C 162 110, 152 124, 140 130   C 132 134, 124 134, 118 132   C 112 134, 106 134, 100 132   C 94 134, 88 134, 82 132   C 76 134, 68 134, 60 130   C 48 124, 38 110, 38 88   C 38 56, 62 28, 100 28 Z" fill="#d8533a" data-om-id="jsx:/https:/9d8c1bab-ac99-4ade-b50f-cd13fdf0fdd3.claudeusercontent.com/v1/design/projects/9d8c1bab-ac99-4ade-b50f-cd13fdf0fdd3/serve/logos.jsx:2670:68:7"></path><g fill="none" stroke="#d8533a" stroke-width="12" stroke-linecap="round" data-om-id="jsx:/https:/9d8c1bab-ac99-4ade-b50f-cd13fdf0fdd3.claudeusercontent.com/v1/design/projects/9d8c1bab-ac99-4ade-b50f-cd13fdf0fdd3/serve/logos.jsx:2707:69:7"><path d="M 60 116 C 36 124, 22 140, 18 158 C 16 168, 24 174, 32 168" data-om-id="jsx:/https:/9d8c1bab-ac99-4ade-b50f-cd13fdf0fdd3.claudeusercontent.com/v1/design/projects/9d8c1bab-ac99-4ade-b50f-cd13fdf0fdd3/serve/logos.jsx:2807:70:32"></path><path d="M 70 122 C 50 144, 38 164, 38 180 C 38 190, 50 192, 56 184" data-om-id="jsx:/https:/9d8c1bab-ac99-4ade-b50f-cd13fdf0fdd3.claudeusercontent.com/v1/design/projects/9d8c1bab-ac99-4ade-b50f-cd13fdf0fdd3/serve/logos.jsx:2807:70:32"></path><path d="M 84 128 C 72 152, 68 176, 74 190 C 78 198, 88 196, 90 188" data-om-id="jsx:/https:/9d8c1bab-ac99-4ade-b50f-cd13fdf0fdd3.claudeusercontent.com/v1/design/projects/9d8c1bab-ac99-4ade-b50f-cd13fdf0fdd3/serve/logos.jsx:2807:70:32"></path><path d="M 94 130 C 92 152, 96 174, 104 184" data-om-id="jsx:/https:/9d8c1bab-ac99-4ade-b50f-cd13fdf0fdd3.claudeusercontent.com/v1/design/projects/9d8c1bab-ac99-4ade-b50f-cd13fdf0fdd3/serve/logos.jsx:2807:70:32"></path><path d="M 106 130 C 108 152, 104 174, 96 184" data-om-id="jsx:/https:/9d8c1bab-ac99-4ade-b50f-cd13fdf0fdd3.claudeusercontent.com/v1/design/projects/9d8c1bab-ac99-4ade-b50f-cd13fdf0fdd3/serve/logos.jsx:2807:70:32"></path><path d="M 116 128 C 128 152, 132 176, 126 190 C 122 198, 112 196, 110 188" data-om-id="jsx:/https:/9d8c1bab-ac99-4ade-b50f-cd13fdf0fdd3.claudeusercontent.com/v1/design/projects/9d8c1bab-ac99-4ade-b50f-cd13fdf0fdd3/serve/logos.jsx:2807:70:32"></path><path d="M 130 122 C 150 144, 162 164, 162 180 C 162 190, 150 192, 144 184" data-om-id="jsx:/https:/9d8c1bab-ac99-4ade-b50f-cd13fdf0fdd3.claudeusercontent.com/v1/design/projects/9d8c1bab-ac99-4ade-b50f-cd13fdf0fdd3/serve/logos.jsx:2807:70:32"></path><path d="M 140 116 C 164 124, 178 140, 182 158 C 184 168, 176 174, 168 168" data-om-id="jsx:/https:/9d8c1bab-ac99-4ade-b50f-cd13fdf0fdd3.claudeusercontent.com/v1/design/projects/9d8c1bab-ac99-4ade-b50f-cd13fdf0fdd3/serve/logos.jsx:2807:70:32"></path></g></g><g transform="translate(0,0)" data-om-id="jsx:/https:/9d8c1bab-ac99-4ade-b50f-cd13fdf0fdd3.claudeusercontent.com/v1/design/projects/9d8c1bab-ac99-4ade-b50f-cd13fdf0fdd3/serve/logos.jsx:2623:67:5"><path d="M 100 28   C 138 28, 162 56, 162 88   C 162 110, 152 124, 140 130   C 132 134, 124 134, 118 132   C 112 134, 106 134, 100 132   C 94 134, 88 134, 82 132   C 76 134, 68 134, 60 130   C 48 124, 38 110, 38 88   C 38 56, 62 28, 100 28 Z" fill="#0e1116" data-om-id="jsx:/https:/9d8c1bab-ac99-4ade-b50f-cd13fdf0fdd3.claudeusercontent.com/v1/design/projects/9d8c1bab-ac99-4ade-b50f-cd13fdf0fdd3/serve/logos.jsx:2670:68:7"></path><g fill="none" stroke="#0e1116" stroke-width="12" stroke-linecap="round" data-om-id="jsx:/https:/9d8c1bab-ac99-4ade-b50f-cd13fdf0fdd3.claudeusercontent.com/v1/design/projects/9d8c1bab-ac99-4ade-b50f-cd13fdf0fdd3/serve/logos.jsx:2707:69:7"><path d="M 60 116 C 36 124, 22 140, 18 158 C 16 168, 24 174, 32 168" data-om-id="jsx:/https:/9d8c1bab-ac99-4ade-b50f-cd13fdf0fdd3.claudeusercontent.com/v1/design/projects/9d8c1bab-ac99-4ade-b50f-cd13fdf0fdd3/serve/logos.jsx:2807:70:32"></path><path d="M 70 122 C 50 144, 38 164, 38 180 C 38 190, 50 192, 56 184" data-om-id="jsx:/https:/9d8c1bab-ac99-4ade-b50f-cd13fdf0fdd3.claudeusercontent.com/v1/design/projects/9d8c1bab-ac99-4ade-b50f-cd13fdf0fdd3/serve/logos.jsx:2807:70:32"></path><path d="M 84 128 C 72 152, 68 176, 74 190 C 78 198, 88 196, 90 188" data-om-id="jsx:/https:/9d8c1bab-ac99-4ade-b50f-cd13fdf0fdd3.claudeusercontent.com/v1/design/projects/9d8c1bab-ac99-4ade-b50f-cd13fdf0fdd3/serve/logos.jsx:2807:70:32"></path><path d="M 94 130 C 92 152, 96 174, 104 184" data-om-id="jsx:/https:/9d8c1bab-ac99-4ade-b50f-cd13fdf0fdd3.claudeusercontent.com/v1/design/projects/9d8c1bab-ac99-4ade-b50f-cd13fdf0fdd3/serve/logos.jsx:2807:70:32"></path><path d="M 106 130 C 108 152, 104 174, 96 184" data-om-id="jsx:/https:/9d8c1bab-ac99-4ade-b50f-cd13fdf0fdd3.claudeusercontent.com/v1/design/projects/9d8c1bab-ac99-4ade-b50f-cd13fdf0fdd3/serve/logos.jsx:2807:70:32"></path><path d="M 116 128 C 128 152, 132 176, 126 190 C 122 198, 112 196, 110 188" data-om-id="jsx:/https:/9d8c1bab-ac99-4ade-b50f-cd13fdf0fdd3.claudeusercontent.com/v1/design/projects/9d8c1bab-ac99-4ade-b50f-cd13fdf0fdd3/serve/logos.jsx:2807:70:32"></path><path d="M 130 122 C 150 144, 162 164, 162 180 C 162 190, 150 192, 144 184" data-om-id="jsx:/https:/9d8c1bab-ac99-4ade-b50f-cd13fdf0fdd3.claudeusercontent.com/v1/design/projects/9d8c1bab-ac99-4ade-b50f-cd13fdf0fdd3/serve/logos.jsx:2807:70:32"></path><path d="M 140 116 C 164 124, 178 140, 182 158 C 184 168, 176 174, 168 168" data-om-id="jsx:/https:/9d8c1bab-ac99-4ade-b50f-cd13fdf0fdd3.claudeusercontent.com/v1/design/projects/9d8c1bab-ac99-4ade-b50f-cd13fdf0fdd3/serve/logos.jsx:2807:70:32"></path></g></g><g data-om-id="jsx:/https:/9d8c1bab-ac99-4ade-b50f-cd13fdf0fdd3.claudeusercontent.com/v1/design/projects/9d8c1bab-ac99-4ade-b50f-cd13fdf0fdd3/serve/logos.jsx:1683:42:5"><circle cx="82" cy="82" r="7" fill="#f5f3ee" data-om-id="jsx:/https:/9d8c1bab-ac99-4ade-b50f-cd13fdf0fdd3.claudeusercontent.com/v1/design/projects/9d8c1bab-ac99-4ade-b50f-cd13fdf0fdd3/serve/logos.jsx:1693:43:7"></circle><circle cx="118" cy="82" r="7" fill="#f5f3ee" data-om-id="jsx:/https:/9d8c1bab-ac99-4ade-b50f-cd13fdf0fdd3.claudeusercontent.com/v1/design/projects/9d8c1bab-ac99-4ade-b50f-cd13fdf0fdd3/serve/logos.jsx:1748:44:7"></circle><circle cx="83.5" cy="83" r="3" fill="#0e1116" data-om-id="jsx:/https:/9d8c1bab-ac99-4ade-b50f-cd13fdf0fdd3.claudeusercontent.com/v1/design/projects/9d8c1bab-ac99-4ade-b50f-cd13fdf0fdd3/serve/logos.jsx:1803:45:7"></circle><circle cx="119.5" cy="83" r="3" fill="#0e1116" data-om-id="jsx:/https:/9d8c1bab-ac99-4ade-b50f-cd13fdf0fdd3.claudeusercontent.com/v1/design/projects/9d8c1bab-ac99-4ade-b50f-cd13fdf0fdd3/serve/logos.jsx:1864:46:7"></circle></g></svg>